# xmcd
#
# Track frame offsets: 
#        160
#        20245
#        36600
#        57322
#        76870
#        95975
#        109455
#        128687
#        145945
#        166062
#
# Disc length: 2517 seconds
#
# Revision: 0
# Processed by: cddbd v1.5.1PL0 Copyright (c) Steve Scherf et al.
# Submitted via: ExactAudioCopy v0.95a3
#
DISCID=8f09d30a
DTITLE=Various Artist - Горячая Десятка. Весна '96
DYEAR=1996
DGENRE=Pop
TTITLE0=Татьяна Овсиенко - Женское Счастье
TTITLE1=Леонид Агутин - Ole-Ole
TTITLE2=Алла Пугачёва - Мэри
TTITLE3=Валерий Сюткин - Вверх И Вниз
TTITLE4=Ирина Салтыкова - Кукольный Дом
TTITLE5=Михаил Шуфутинский - За Милых Дам
TTITLE6=Наталья Сенчукова - Максим
TTITLE7=Валерий Меладзе - Так И Скажи
TTITLE8=Таня Буланова - Мост Любви
TTITLE9=Александр Серов - Я Люблю Тебя До Слёз
EXTD=
EXTT0=
EXTT1=
EXTT2=
EXTT3=
EXTT4=
EXTT5=
EXTT6=
EXTT7=
EXTT8=
EXTT9=
PLAYORDER=
